<?xml version="1.0" standalone="no"?>
<!DOCTYPE svg PUBLIC "-//W3C//DTD SVG 20010904//EN"
 "http://www.w3.org/TR/2001/REC-SVG-20010904/DTD/svg10.dtd">
<svg version="1.0" xmlns="http://www.w3.org/2000/svg"
 width="100.000000pt" height="100.000000pt" viewBox="0 0 100.000000 100.000000"
 preserveAspectRatio="xMidYMid meet">
<metadata>
Created by potrace 1.11, written by Peter Selinger 2001-2013
</metadata>
<g transform="translate(0.000000,100.000000) scale(0.100000,-0.100000)"
fill="#000000" stroke="none">
<path d="M785 895 c-14 -13 -25 -28 -25 -33 0 -5 -14 -15 -30 -22 -17 -7 -41
-26 -55 -42 l-24 -29 -53 16 c-65 19 -130 19 -196 0 -48 -15 -53 -14 -84 5
-18 11 -43 20 -55 20 -13 0 -23 5 -23 10 0 23 -50 60 -80 60 -70 0 -105 -86
-55 -135 32 -33 78 -33 111 1 21 20 32 24 55 19 43 -10 43 -19 -2 -55 -95 -76
-156 -221 -147 -347 13 -178 153 -283 378 -283 169 0 294 62 352 175 66 128 7
349 -121 455 -40 34 -41 36 -25 58 26 37 53 42 80 15 31 -31 78 -30 109 2 16
15 25 36 25 55 0 19 -9 40 -25 55 -15 16 -36 25 -55 25 -19 0 -40 -9 -55 -25z
m85 -34 c20 -38 -13 -71 -51 -51 -21 12 -25 40 -7 58 18 18 46 14 58 -7z
m-686 -37 c20 -19 20 -29 0 -48 -18 -19 -20 -19 -45 -6 -21 12 -25 40 -7 58
16 16 33 15 52 -4z m441 -98 c143 -65 239 -253 206 -402 -32 -143 -206 -227
-406 -196 -222 35 -314 188 -236 393 55 144 198 246 329 235 28 -3 77 -16 107
-30z"/>
<path d="M419 597 c-106 -71 -106 -203 0 -274 98 -66 241 15 241 137 0 122
-143 203 -241 137z m132 -32 c35 -19 69 -70 69 -105 0 -56 -65 -120 -122 -120
-53 0 -118 66 -118 120 0 54 65 120 118 120 13 0 36 -7 53 -15z"/>
<path d="M457 502 c-36 -40 -9 -102 45 -102 25 0 58 27 58 47 0 6 -7 14 -16
17 -9 3 -14 15 -12 28 2 19 -2 24 -28 26 -20 2 -36 -3 -47 -16z"/>
<path d="M334 245 c-8 -21 5 -31 75 -51 93 -28 267 3 259 45 -4 19 -12 19
-100 -5 -64 -18 -71 -18 -130 -2 -35 9 -71 19 -80 23 -12 5 -20 1 -24 -10z"/>
</g>
</svg>
